<?xml version="1.0" encoding="utf-8"?>
<!-- Generator: Adobe Illustrator 16.0.0, SVG Export Plug-In . SVG Version: 6.00 Build 0)  -->
<!DOCTYPE svg PUBLIC "-//W3C//DTD SVG 1.1//EN" "http://www.w3.org/Graphics/SVG/1.1/DTD/svg11.dtd">
<svg version="1.1" id="blog" xmlns="http://www.w3.org/2000/svg" xmlns:xlink="http://www.w3.org/1999/xlink" x="0px" y="0px"
	 width="32px" height="32px" viewBox="0 0 32 32" enable-background="new 0 0 32 32" xml:space="preserve">
<g id="_x3C_Group_x3E__40_">
	<path fill="#9F9F9F" d="M29.194,9.934c-0.037-0.057-0.608-1.056-1.759-2.081c-1.137-1.021-2.908-2.082-5.238-2.082
		c-2.331,0-4.084,1.064-5.204,2.09c-0.345,0.317-0.634,0.629-0.875,0.914c-0.244-0.287-0.548-0.602-0.902-0.923
		c-1.143-1.021-2.912-2.082-5.245-2.082c-2.33,0-4.081,1.064-5.202,2.09C3.643,8.89,3.095,9.891,3.062,9.95l-0.119,0.46v15.056
		l1.805,0.46l0.002,0.003c0.024-0.051,0.514-0.887,1.4-1.667c0.897-0.785,2.146-1.511,3.821-1.515c1.725,0,3.039,0.777,3.962,1.599
		c0.455,0.407,0.811,0.817,1.039,1.124c0.117,0.153,0.201,0.279,0.256,0.359c0.026,0.042,0.046,0.075,0.059,0.097
		c0.004,0.01,0.009,0.014,0.009,0.019l0,0l0,0H15.3l1.674-0.016l0,0l0.003-0.003v-0.003c0.037-0.069,0.523-0.891,1.396-1.661
		c0.901-0.785,2.151-1.511,3.823-1.515c1.725,0,3.035,0.777,3.964,1.599c0.458,0.407,0.805,0.817,1.035,1.124
		c0.117,0.153,0.203,0.279,0.26,0.359c0.025,0.042,0.043,0.075,0.057,0.097c0.005,0.01,0.009,0.014,0.009,0.019h0.003l0,0
		l1.799-0.479V10.41L29.194,9.934z M9.971,20.826H9.97c-2.264,0-3.979,1.004-5.099,2V10.682c0.198-0.303,0.629-0.9,1.28-1.476
		c0.897-0.785,2.146-1.51,3.821-1.51c1.725,0,3.039,0.778,3.962,1.596c0.455,0.406,0.811,0.821,1.039,1.127
		c0.082,0.104,0.148,0.2,0.194,0.272v12.18C14.029,21.864,12.273,20.826,9.971,20.826z M27.396,22.871
		c-1.146-1.011-2.896-2.045-5.198-2.045c-2.264-0.004-3.98,1.004-5.104,2V10.682c0.198-0.3,0.63-0.9,1.28-1.476
		c0.901-0.785,2.151-1.51,3.823-1.51c1.725,0,3.035,0.778,3.964,1.596c0.458,0.406,0.805,0.821,1.035,1.127
		c0.082,0.104,0.149,0.2,0.199,0.272V22.871z"/>
</g>
</svg>
