<?xml version="1.0" encoding="utf-8"?>
<!-- Generator: Adobe Illustrator 16.0.0, SVG Export Plug-In . SVG Version: 6.00 Build 0)  -->
<!DOCTYPE svg PUBLIC "-//W3C//DTD SVG 1.1//EN" "http://www.w3.org/Graphics/SVG/1.1/DTD/svg11.dtd">
<svg version="1.1" id="eye" xmlns="http://www.w3.org/2000/svg" xmlns:xlink="http://www.w3.org/1999/xlink" x="0px" y="0px"
	 width="32px" height="32px" viewBox="0 0 32 32" enable-background="new 0 0 32 32" xml:space="preserve">
<path fill="#9F9F9F" d="M16,29.604C5.494,29.604,0.453,16,0.453,16S5.494,2.396,16,2.396C26.506,2.396,31.547,16,31.547,16
	S26.506,29.604,16,29.604z M16,6.283c-5.369,0-9.717,4.349-9.717,9.717s4.349,9.717,9.717,9.717c5.368,0,9.717-4.349,9.717-9.717
	S21.368,6.283,16,6.283z M16,21.83c-3.221,0-5.831-2.608-5.831-5.83c0-0.685,0.14-1.333,0.357-1.943h3.53v-3.53
	C14.666,10.31,15.314,10.17,16,10.17c3.219,0,5.83,2.61,5.83,5.83C21.83,19.222,19.219,21.83,16,21.83z"/>
</svg>
