<?xml version="1.0" encoding="utf-8"?>
<!-- Generator: Adobe Illustrator 16.0.0, SVG Export Plug-In . SVG Version: 6.00 Build 0)  -->
<!DOCTYPE svg PUBLIC "-//W3C//DTD SVG 1.1//EN" "http://www.w3.org/Graphics/SVG/1.1/DTD/svg11.dtd">
<svg version="1.1" id="home" xmlns="http://www.w3.org/2000/svg" xmlns:xlink="http://www.w3.org/1999/xlink" x="0px" y="0px"
	 width="32px" height="32px" viewBox="0 0 32 32" enable-background="new 0 0 32 32" xml:space="preserve">
<g>
	<path fill="#9F9F9F" d="M4.356,29.933c0,0-0.029,0.717,0.672,0.717c0.871,0,8.075-0.01,8.075-0.01l0.012-6.616
		c0,0-0.114-1.092,0.944-1.092h3.351c1.251,0,1.176,1.092,1.176,1.092L18.57,30.62c0,0,6.832,0,7.905,0
		c0.888,0,0.847-0.892,0.847-0.892V17.527L16.182,7.617L4.356,17.527V29.933z"/>
	<path fill="#9F9F9F" d="M0,16.605c0,0,1.004,1.85,3.194,0L16.282,5.533l12.27,11.003c2.534,1.828,3.485,0,3.485,0L16.282,2.265
		L0,16.605z"/>
	<polygon fill="#9F9F9F" points="28.254,5.507 25.098,5.507 25.11,9.334 28.254,12.001 	"/>
</g>
</svg>
