<!DOCTYPE svg PUBLIC "-//W3C//DTD SVG 20010904//EN" "http://www.w3.org/TR/2001/REC-SVG-20010904/DTD/svg10.dtd">
<svg version="1.0" xmlns="http://www.w3.org/2000/svg" width="331px" height="331px" viewBox="0 0 3310 3310" preserveAspectRatio="xMidYMid meet">
<g id="layer101" fill="#ffffff" stroke="none">
 <path d="M1992 2884 c-29 -14 -105 -45 -170 -69 -64 -24 -177 -66 -250 -94 -226 -87 -303 -104 -472 -104 -80 0 -167 5 -193 10 -41 9 -47 8 -43 -4 3 -8 6 -196 6 -417 l0 -403 98 -51 c96 -50 223 -93 314 -107 44 -7 73 3 480 160 451 174 472 185 509 257 50 97 -11 228 -119 258 -20 5 -43 10 -50 10 -11 0 -233 -79 -365 -129 -24 -9 -31 -7 -57 17 -31 28 -48 86 -33 109 5 7 109 55 232 107 l224 96 496 -293 c546 -321 529 -314 618 -269 65 34 93 82 93 163 0 52 -5 73 -23 100 -24 37 -18 33 -692 435 l-400 239 -75 2 c-63 2 -83 -2 -128 -23z"/>
 <path d="M0 2280 l0 -530 410 0 410 0 0 530 0 530 -410 0 -410 0 0 -530z m250 0 l0 -380 -50 0 -50 0 0 380 0 380 50 0 50 0 0 -380z m299 -106 c76 -30 92 -126 30 -178 -51 -43 -136 -30 -165 25 -33 64 -5 139 59 158 18 5 33 10 34 10 2 1 20 -6 42 -15z"/>
 <path d="M2354 2247 c3 -15 9 -47 13 -72 5 -43 10 -48 82 -99 89 -62 201 -179 249 -259 156 -260 168 -584 31 -847 -163 -316 -542 -495 -901 -426 -277 53 -515 250 -622 511 -53 132 -72 332 -42 460 8 33 13 61 12 62 -2 2 -29 14 -62 27 -42 17 -61 21 -66 13 -19 -30 -30 -161 -25 -291 4 -113 10 -158 31 -229 105 -353 384 -611 735 -682 106 -22 332 -16 431 10 292 79 541 294 656 566 151 358 83 756 -177 1033 -82 88 -158 146 -266 203 l-86 46 7 -26z"/>
 <path d="M1823 1768 c-556 -232 -502 -192 -510 -375 -10 -213 49 -366 196 -513 139 -138 276 -195 471 -194 126 1 203 19 315 77 102 52 225 171 281 272 138 248 110 548 -71 767 -45 55 -180 170 -195 167 -3 -1 -222 -91 -487 -201z m227 -72 l0 -54 55 -26 c61 -30 88 -62 104 -123 26 -97 -39 -194 -153 -227 -103 -30 -155 -100 -121 -165 29 -58 106 -76 190 -46 21 8 40 13 41 12 1 -1 7 -13 14 -26 10 -19 10 -25 -1 -32 -20 -13 -80 -29 -106 -29 -21 0 -23 -5 -23 -54 0 -51 -1 -53 -25 -48 -23 4 -25 9 -25 52 0 47 -1 49 -35 60 -73 24 -125 89 -125 154 0 78 44 135 127 166 85 32 129 57 146 84 22 32 22 95 1 125 -34 48 -129 65 -209 36 -52 -19 -50 -19 -64 12 -15 33 -10 36 82 60 l67 17 0 53 c0 52 0 53 30 53 30 0 30 -1 30 -54z"/>
 </g>

</svg>