<!DOCTYPE svg PUBLIC "-//W3C//DTD SVG 20010904//EN" "http://www.w3.org/TR/2001/REC-SVG-20010904/DTD/svg10.dtd">
<svg version="1.0" xmlns="http://www.w3.org/2000/svg" width="331px" height="331px" viewBox="0 0 3310 3310" preserveAspectRatio="xMidYMid meet">
<g id="layer101" fill="#ffffff" stroke="none">
 <path d="M150 2729 c-43 -17 -89 -58 -114 -102 -24 -41 -25 -49 -32 -323 -7 -280 -7 -282 16 -329 24 -49 35 -56 154 -100 100 -36 156 -116 156 -221 0 -107 -63 -189 -177 -229 -91 -32 -113 -45 -133 -77 -19 -31 -20 -51 -20 -311 0 -210 3 -285 13 -310 20 -46 65 -96 116 -129 l45 -28 1478 0 c1437 0 1480 1 1516 19 20 11 54 37 74 58 72 74 68 12 68 1016 l0 903 -28 45 c-16 24 -50 63 -77 87 l-48 42 -1491 -1 c-955 0 -1500 -4 -1516 -10z m560 -242 c0 -29 5 -58 12 -65 7 -7 37 -12 68 -12 31 0 61 5 68 12 7 7 12 36 12 65 l0 53 1123 -2 1122 -3 3 -869 c1 -634 -1 -872 -9 -882 -10 -12 -199 -14 -1125 -14 l-1114 0 0 38 c0 51 -14 62 -80 62 -66 0 -80 -11 -80 -62 l0 -38 -242 2 -243 3 -3 230 -2 230 62 29 c79 37 175 130 216 212 61 122 61 236 0 358 -39 76 -144 182 -220 221 l-58 30 0 221 c0 121 3 224 7 227 3 4 114 7 245 7 l238 0 0 -53z"/>
 <path d="M726 2324 c-13 -12 -16 -38 -16 -119 0 -93 2 -105 19 -115 27 -14 114 -13 129 2 8 8 12 49 12 120 0 96 -2 108 -19 118 -30 16 -107 12 -125 -6z"/>
 <path d="M1686 2071 c-65 -43 -69 -83 -21 -217 19 -53 35 -100 35 -105 0 -4 -39 -36 -87 -69 -49 -34 -98 -74 -110 -88 -37 -43 -27 -105 21 -144 17 -15 43 -18 156 -18 l135 0 35 -121 c37 -131 63 -172 119 -184 37 -8 95 16 114 47 8 12 32 76 53 141 l38 117 129 0 129 0 34 34 c28 28 34 42 34 75 0 52 -15 68 -131 141 l-86 54 34 105 c18 59 33 121 33 139 0 40 -24 78 -61 98 -53 27 -82 18 -188 -56 -55 -38 -103 -70 -107 -70 -3 0 -51 32 -107 70 -111 77 -147 86 -201 51z"/>
 <path d="M733 1960 c-22 -9 -23 -15 -23 -119 0 -99 2 -111 19 -121 27 -14 114 -13 129 2 8 8 12 49 12 120 0 107 0 109 -26 118 -31 12 -81 12 -111 0z"/>
 <path d="M722 1588 c-18 -18 -16 -212 2 -227 9 -7 40 -11 78 -9 l63 3 3 109 c2 71 -1 113 -9 122 -14 18 -120 19 -137 2z"/>
 <path d="M722 1218 c-18 -18 -16 -212 2 -227 9 -7 40 -11 78 -9 l63 3 3 109 c2 71 -1 113 -9 122 -14 18 -120 19 -137 2z"/>
 </g>

</svg>