<?xml version="1.0" encoding="utf-8"?>
<!-- Generator: Adobe Illustrator 16.0.0, SVG Export Plug-In . SVG Version: 6.00 Build 0)  -->
<!DOCTYPE svg PUBLIC "-//W3C//DTD SVG 1.1//EN" "http://www.w3.org/Graphics/SVG/1.1/DTD/svg11.dtd">
<svg version="1.1" id="language" xmlns="http://www.w3.org/2000/svg" xmlns:xlink="http://www.w3.org/1999/xlink" x="0px" y="0px"
	 width="32px" height="32px" viewBox="0 0 32 32" enable-background="new 0 0 32 32" xml:space="preserve">
<g>
	<path fill="#9F9F9F" d="M16,4.283c6.444,0,11.688,5.243,11.688,11.687c0,6.444-5.243,11.687-11.688,11.687
		c-6.444,0-11.687-5.243-11.687-11.687C4.313,9.526,9.556,4.283,16,4.283 M16,2.488c-7.445,0-13.482,6.036-13.482,13.482
		c0,7.445,6.037,13.482,13.482,13.482s13.482-6.037,13.482-13.482C29.482,8.524,23.445,2.488,16,2.488L16,2.488z"/>
</g>
<g>
	<rect x="15.103" y="3.081" fill="#9F9F9F" width="1.795" height="25.533"/>
</g>
<g>
	<rect x="3.202" y="15.115" fill="#9F9F9F" width="25.641" height="1.795"/>
</g>
<g>
	<rect x="5.339" y="8.064" fill="#9F9F9F" width="21.367" height="1.795"/>
</g>
<g>
	<rect x="5.339" y="22.166" fill="#9F9F9F" width="21.367" height="1.795"/>
</g>
<g>
	<path fill="#9F9F9F" d="M14.911,29.512c-0.735,0-2.791-1.493-4.441-3.491c-1.658-2.008-3.635-5.382-3.635-10.05
		c0-3.732,1.317-7.215,3.811-10.072c1.878-2.152,3.756-3.193,3.834-3.236l0.862,1.574l-0.432-0.787l0.433,0.786
		c-0.017,0.009-1.719,0.961-3.39,2.894C9.748,9.68,8.629,12.654,8.629,15.97c0,3.979,1.632,6.889,3.001,8.631
		c1.533,1.947,3.183,3.021,3.514,3.15c-0.004-0.001-0.094-0.036-0.233-0.036V29.512z"/>
</g>
<g>
	<path fill="#9F9F9F" d="M17.4,29.512v-1.796c-0.139,0-0.229,0.035-0.233,0.036c0.331-0.129,1.981-1.203,3.515-3.15
		c1.368-1.742,3.001-4.652,3.001-8.631c0-7.966-6.646-11.697-6.714-11.734l0.862-1.574c0.079,0.043,1.957,1.084,3.835,3.236
		c2.493,2.857,3.811,6.34,3.811,10.072c0,4.668-1.976,8.042-3.635,10.05C20.191,28.019,18.136,29.512,17.4,29.512z"/>
</g>
</svg>
