<?xml version="1.0" encoding="utf-8"?>
<!-- Generator: Adobe Illustrator 16.0.0, SVG Export Plug-In . SVG Version: 6.00 Build 0)  -->
<!DOCTYPE svg PUBLIC "-//W3C//DTD SVG 1.1//EN" "http://www.w3.org/Graphics/SVG/1.1/DTD/svg11.dtd">
<svg version="1.1" id="login" xmlns="http://www.w3.org/2000/svg" xmlns:xlink="http://www.w3.org/1999/xlink" x="0px" y="0px"
	 width="32px" height="32px" viewBox="0 0 32 32" enable-background="new 0 0 32 32" xml:space="preserve">
<path fill="#9F9F9F" d="M13.829,27.25h12.056V5.265H13.829v8.051c-0.819,0-1.602,0-2.323,0V2.807h16.605v26.887H11.506v-5.972
	c0.725,0,1.506,0,2.323,0V27.25z"/>
<path fill="#9F9F9F" d="M22.411,18.07c-0.576-0.571-6.042-5.865-6.042-5.865s-0.727-0.731-0.727,0.237c0,0.974,0,2.521,0,2.521
	s-0.422,0-1.066,0c-1.99,0-8.856,0-10.34,0c0,0-0.348-0.013-0.348,0.438c0,0.449,0,5.557,0,6.187c0,0.631,0.413,0.521,0.413,0.521
	c1.525,0,8.266,0,10.325,0c0.72,0,1.188,0,1.188,0s0,1.928,0,2.729c0,0.796,0.693,0.062,0.693,0.062l5.853-6.018
	C22.361,18.884,22.828,18.487,22.411,18.07z"/>
</svg>
