<svg id="圖層_1" data-name="圖層 1" xmlns="http://www.w3.org/2000/svg" viewBox="0 0 324.53 60.44"><defs><style>.cls-1{fill:#42adc6;}.cls-2{fill:#6dd6da;}.cls-3{fill:#b8d0eb;}</style></defs><title>彩色logo＋黑字</title><g id="黑白_白底黑圖"><path d="M92.56,58a12.34,12.34,0,0,1-4.5-2.22,4.23,4.23,0,0,1-1.75-3.32V46.69h1.1q.84,5.23,3.4,7.59a10,10,0,0,0,7.06,2.35,8,8,0,0,0,4.81-1.39,4.52,4.52,0,0,0,1.94-3.9,5.73,5.73,0,0,0-1.33-3.79A16.23,16.23,0,0,0,99,44.23l-6.44-3.82a14.56,14.56,0,0,1-4.81-4.08,8.76,8.76,0,0,1-1.41-5,8,8,0,0,1,2.9-6.46,11.55,11.55,0,0,1,7.67-2.43,19.6,19.6,0,0,1,5.41.76,11.64,11.64,0,0,1,4.34,2.2,4.27,4.27,0,0,1,1.7,3.32v5.76h-1.1q-.89-5.23-3.35-7.56A9.58,9.58,0,0,0,97,24.56,6.52,6.52,0,0,0,92.75,26,4.65,4.65,0,0,0,91,29.79a4.87,4.87,0,0,0,1.31,3.48,22,22,0,0,0,4.39,3.27l6.44,3.82a18.55,18.55,0,0,1,5.07,4,7.38,7.38,0,0,1,1.52,4.74,8.81,8.81,0,0,1-3.06,7.06q-3.06,2.62-8.4,2.62A20.61,20.61,0,0,1,92.56,58Z" transform="translate(-19 -10.7)"/><path d="M124.92,25.5h-4.45q-6.43,0-6.44,6.12h-1.15V27.54q0-4.18,4.45-4.19h24.38V25.5H130.15V57.88h-5.23Z" transform="translate(-19 -10.7)"/><path d="M158.15,43.71l-9-13.55A23.44,23.44,0,0,0,145.64,26a6.41,6.41,0,0,0-3.92-1.59v-1h5a6.77,6.77,0,0,1,4.53,1.57,18.47,18.47,0,0,1,3.53,4.18l7.43,11.51L173,23.35h2.62L163.43,43.08V57.88h-5.28Z" transform="translate(-19 -10.7)"/><path d="M181.53,29.79a8.25,8.25,0,0,0-.73-4q-.73-1.28-2.93-1.28H177v-1.2h5.13a6.3,6.3,0,0,1,2.88.53,3,3,0,0,1,1.41,1.88,14.66,14.66,0,0,1,.42,4V55.74h18.42v2.15h-23.7Z" transform="translate(-19 -10.7)"/><path d="M209.94,29.79a8.25,8.25,0,0,0-.73-4q-.73-1.28-2.93-1.28h-.89v-1.2h22.5q4.45,0,4.45,4.19v4.08h-1.2q0-6.13-6.54-6.12h-9.36V39h14v2.15h-14V55.74h9.1a9.68,9.68,0,0,0,5.42-1.33A9.3,9.3,0,0,0,233,49.93l1.15.31L232.44,55A4.71,4.71,0,0,1,231,57.15a4.18,4.18,0,0,1-2.61.73H209.94Z" transform="translate(-19 -10.7)"/><path d="M275.44,59.06a6.59,6.59,0,0,1-3.09-3.61,18.74,18.74,0,0,1-.92-6.46V29.27L258.78,57.88h-1.2l-13.76-29.3v29.3h-2.2V23.35H247l12.56,26.79,11.93-26.79h5.23V49q0,9.94,4.71,10.15v1.1A12.54,12.54,0,0,1,275.44,59.06Z" transform="translate(-19 -10.7)"/><path d="M305.55,51.34,304.24,48H289.8l-4.24,9.84H283.1L298,23.35h1.78l11.56,28a12.32,12.32,0,0,0,2.43,4A5.35,5.35,0,0,0,317,56.74v1.15a8.23,8.23,0,0,1-2.2.26Q308.16,58.15,305.55,51.34Zm-2.35-5.44L297.07,31.1,290.64,45.9Z" transform="translate(-19 -10.7)"/><path d="M320.93,29.79a8.25,8.25,0,0,0-.73-4q-.73-1.28-2.93-1.28h-.89v-1.2h13.81a19.85,19.85,0,0,1,9.23,2.12q4.11,2.12,4.11,8.35a8.78,8.78,0,0,1-2.12,6.3,10.33,10.33,0,0,1-4.79,3,18.5,18.5,0,0,1-4.87.73h-5.55V57.88h-5.28Zm9,12.08a8.52,8.52,0,0,0,3.53-.81,7.08,7.08,0,0,0,3-2.69,8.65,8.65,0,0,0,1.23-4.81,8.65,8.65,0,0,0-1.23-4.81,7.13,7.13,0,0,0-3-2.69,8.41,8.41,0,0,0-3.51-.81,14.49,14.49,0,0,0-3.77.52V41.87Z" transform="translate(-19 -10.7)"/><rect class="cls-1" x="35.7" y="50.99" width="16.69" height="16.69" transform="translate(-48.06 37.82) rotate(-45)"/><path class="cls-1" d="M33.25,13.14,44,23.93,54.83,13.14A25.11,25.11,0,0,0,33.25,13.14Z" transform="translate(-19 -10.7)"/><path class="cls-2" d="M61.75,18a25,25,0,0,0-6.91-4.89L44,23.93l11.8,11.8L44,47.54l11.8,11.8,5.9-5.9A25,25,0,0,0,61.75,18Z" transform="translate(-19 -10.7)"/><path class="cls-3" d="M44,47.54l-11.8-11.8L44,23.93,33.25,13.14a25,25,0,0,0-6.91,40.3l5.9,5.9Z" transform="translate(-19 -10.7)"/></g></svg>