<?xml version="1.0" encoding="utf-8"?>
<!-- Generator: Adobe Illustrator 16.0.0, SVG Export Plug-In . SVG Version: 6.00 Build 0)  -->
<!DOCTYPE svg PUBLIC "-//W3C//DTD SVG 1.1//EN" "http://www.w3.org/Graphics/SVG/1.1/DTD/svg11.dtd">
<svg version="1.1" id="search" xmlns="http://www.w3.org/2000/svg" xmlns:xlink="http://www.w3.org/1999/xlink" x="0px" y="0px"
	 width="32px" height="32px" viewBox="0 0 32 32" enable-background="new 0 0 32 32" xml:space="preserve">
<g>
	<path fill="#FFFFFF" d="M13.206,6.805c1.639,0,3.18,0.639,4.339,1.798s1.798,2.7,1.798,4.339c0,1.639-0.639,3.181-1.798,4.34
		c-1.159,1.159-2.7,1.796-4.339,1.796s-3.181-0.637-4.34-1.796c-1.159-1.16-1.797-2.702-1.797-4.34c0-1.639,0.638-3.18,1.797-4.339
		S11.567,6.805,13.206,6.805 M13.206,2.582c-2.652,0-5.303,1.012-7.327,3.035c-4.045,4.045-4.045,10.606,0,14.652
		c2.023,2.021,4.674,3.034,7.327,3.034c2.651,0,5.302-1.013,7.325-3.034c4.047-4.046,4.047-10.607,0-14.652
		C18.508,3.593,15.857,2.582,13.206,2.582L13.206,2.582z"/>
</g>
<g>
	<path fill="#FFFFFF" d="M27.044,28.124c-0.289,0-0.577-0.111-0.797-0.33l-7.705-7.706c-0.44-0.44-0.44-1.153,0-1.594
		c0.438-0.439,1.152-0.439,1.593,0l7.705,7.707c0.44,0.438,0.44,1.152,0,1.593C27.62,28.013,27.332,28.124,27.044,28.124z"/>
</g>
<g>
	<path fill="#FFFFFF" d="M27.044,29.109c-0.541,0-1.08-0.207-1.493-0.619l-4.608-4.608c-0.825-0.825-0.825-2.162,0-2.987
		c0.823-0.824,2.162-0.824,2.986,0l4.609,4.608c0.823,0.825,0.823,2.162,0,2.987C28.125,28.902,27.584,29.109,27.044,29.109z"/>
</g>
</svg>
