<svg version="1.1" id="service" xmlns="http://www.w3.org/2000/svg" xmlns:xlink="http://www.w3.org/1999/xlink" x="0px" y="0px"
	 width="32px" height="32px" viewBox="0 0 32 32" enable-background="new 0 0 32 32" xml:space="preserve">
<g>
	<path fill-rule="evenodd" clip-rule="evenodd" fill="#9F9F9F" d="M23.904,3.759h-4.438v1.797h3.596
		c0.496,0,0.898,0.403,0.898,0.897v5.164v3.768v11.798c0,0.498-0.402,0.9-0.898,0.9h-9.101h-0.742H8.625
		c-0.497,0-0.897-0.402-0.897-0.9V6.453c0-0.494,0.401-0.897,0.897-0.897h3.65V3.759H7.728c-0.994,0-1.797,0.805-1.797,1.797v22.526
		c0,0.993,0.803,1.797,1.797,1.797h4.362h3.825h7.989c0.994,0,1.855-0.804,1.855-1.797V14.12v-1.995V5.556
		C25.76,4.564,24.898,3.759,23.904,3.759z"/>
	<path fill-rule="evenodd" clip-rule="evenodd" fill="#9F9F9F" d="M11.644,6.582c-0.385,0-0.694,0.214-0.694,0.478s0,0.951,0,0.951
		h9.79c0,0,0-0.687,0-0.951s-0.313-0.478-0.694-0.478h-2.091V2.683c-2.144-1.522-4.229-0.027-4.229-0.027l0.005,3.925H11.644z"/>
	<rect x="9.951" y="12.35" fill-rule="evenodd" clip-rule="evenodd" fill="#9F9F9F" width="11.787" height="2.268"/>
	<rect x="9.951" y="17.52" fill-rule="evenodd" clip-rule="evenodd" fill="#9F9F9F" width="11.787" height="2.267"/>
	<rect x="9.951" y="22.901" fill-rule="evenodd" clip-rule="evenodd" fill="#9F9F9F" width="11.787" height="2.269"/>
</g>
</svg>
