<?xml version="1.0" encoding="utf-8"?>
<!-- Generator: Adobe Illustrator 16.0.0, SVG Export Plug-In . SVG Version: 6.00 Build 0)  -->
<!DOCTYPE svg PUBLIC "-//W3C//DTD SVG 1.1//EN" "http://www.w3.org/Graphics/SVG/1.1/DTD/svg11.dtd">
<svg version="1.1" id="setting" xmlns="http://www.w3.org/2000/svg" xmlns:xlink="http://www.w3.org/1999/xlink" x="0px" y="0px"
	 width="32px" height="32px" viewBox="0 0 32 32" enable-background="new 0 0 32 32" xml:space="preserve">
<g id="_x3C_Group_x3E__15_">
	<path fill="#9F9F9F" d="M26.777,12.663l-0.75-1.783c0,0,1.746-3.94,1.593-4.09l-2.312-2.257c-0.16-0.156-4.103,1.644-4.103,1.644
		l-1.815-0.734c0,0-1.605-3.994-1.826-3.994H14.3c-0.228,0-1.714,4.002-1.714,4.002l-1.815,0.737c0,0-4.023-1.71-4.178-1.557
		L4.288,6.888c-0.16,0.156,1.679,4.016,1.679,4.016l-0.752,1.78c0,0-4.077,1.571-4.077,1.783v3.197c0,0.225,4.088,1.678,4.088,1.678
		l0.75,1.778c0,0-1.745,3.938-1.592,4.089l2.31,2.262c0.156,0.152,4.1-1.646,4.1-1.646l1.819,0.735c0,0,1.605,3.99,1.827,3.99h3.262
		c0.228,0,1.714-4.002,1.714-4.002l1.82-0.734c0,0,4.016,1.709,4.172,1.56l2.31-2.26c0.162-0.158-1.68-4.015-1.68-4.015l0.75-1.781
		c0,0,4.08-1.572,4.08-1.788v-3.194C30.867,14.115,26.777,12.663,26.777,12.663z M20.768,16c0,2.57-2.138,4.663-4.766,4.663
		c-2.625,0-4.766-2.093-4.766-4.663c0-2.571,2.141-4.661,4.766-4.661C18.63,11.339,20.768,13.429,20.768,16z"/>
</g>
</svg>
