<svg xmlns="http://www.w3.org/2000/svg" xmlns:xlink="http://www.w3.org/1999/xlink" version="1.1" baseProfile="basic" width="50" height="32" xml:space="preserve"><rect id="backgroundrect" width="100%" height="100%" x="0" y="0" fill="none" stroke="none" class=""/>
<style type="text/css">
	.st0{fill:#48adc5;}
</style>

<g class="currentLayer"><title>Layer 1</title><g id="XMLID_2965_" class="">
	<path id="XMLID_2973_" class="st0" d="M25.328569154146077,19.015193812415067 c-4.27461421536692,0 -7.6586838025323996,-3.462908718430707 -7.6586838025323996,-7.837109204869494 c0,-4.374200486438787 3.3840695871654782,-7.837109204869494 7.6586838025323996,-7.837109204869494 c4.27461421536692,0 7.6586838025323996,3.462908718430707 7.6586838025323996,7.837109204869494 C32.98725295667847,15.552285093984363 29.425074443872703,19.015193812415067 25.328569154146077,19.015193812415067 z"/>
	<path id="XMLID_2972_" class="st0" d="M10.367419400361856,18.468418751610226 c-3.20596066152519,0 -5.699485620489226,-2.551616950422626 -5.699485620489226,-5.832267315251718 c0,-3.2806503648290906 2.493524958964037,-5.832267315251718 5.699485620489226,-5.832267315251718 c3.20596066152519,0 5.699485620489226,2.551616950422626 5.699485620489226,5.832267315251718 C16.066905020851074,15.916801801187589 13.573380061887043,18.468418751610226 10.367419400361856,18.468418751610226 z"/>
	<path id="XMLID_2971_" class="st0" d="M40.28971890793029,18.468418751610226 c-3.20596066152519,0 -5.699485620489226,-2.551616950422626 -5.699485620489226,-5.832267315251718 c0,-3.2806503648290906 2.493524958964037,-5.832267315251718 5.699485620489226,-5.832267315251718 c3.20596066152519,0 5.699485620489226,2.551616950422626 5.699485620489226,5.832267315251718 C45.811095602779226,15.916801801187589 43.31757064381518,18.468418751610226 40.28971890793029,18.468418751610226 z"/>
	<path id="XMLID_2970_" class="st0" d="M50.08570981814617,24.847461127666794 c-0.1781089256402888,-1.2758084752113141 -0.7124357025611546,-2.551616950422626 -1.4248714051223068,-3.827425425633939 c-0.5343267769208665,-0.7290334144064656 -1.0686535538417308,-1.4580668288129293 -1.6029803307625952,-2.004841889617778 c-0.5343267769208665,-0.5467750608048496 -1.2467624794820187,-1.0935501216096977 -1.9591981820431736,-1.4580668288129293 c-0.1781089256402888,-0.18225835360161644 -0.1781089256402888,0 -0.3562178512805778,0 c-0.5343267769208665,0.5467750608048496 -1.2467624794820187,0.9112917680080816 -1.9591981820431736,1.2758084752113141 c-0.8905446282014426,0.364516707203234 -1.7810892564028848,0.5467750608048496 -2.849742810244613,0.5467750608048496 c-1.0686535538417308,0 -2.13730710768346,-0.364516707203234 -3.20596066152519,-1.0935501216096977 c-0.3562178512805778,-0.18225835360161644 -0.7124357025611546,-0.5467750608048496 -0.8905446282014426,-0.7290334144064656 c-0.1781089256402888,0 -0.1781089256402888,-0.18225835360161644 -0.3562178512805778,0 c-0.3562178512805778,0.18225835360161644 -0.8905446282014426,0.5467750608048496 -1.2467624794820187,0.9112917680080816 c0.3562178512805778,0.18225835360161644 0.5343267769208665,0.5467750608048496 0.8905446282014426,0.7290334144064656 c0.8905446282014426,0.9112917680080816 1.7810892564028848,1.8225835360161615 2.3154160333237486,2.916133657625859 c0.7124357025611546,1.2758084752113141 1.2467624794820187,2.551616950422626 1.6029803307625952,4.009683779235556 c3.3840695871654782,0 6.768139174330957,0 10.152208761496436,0 c0.3562178512805778,0 0.7124357025611546,-0.18225835360161644 0.8905446282014426,-0.5467750608048496 c0,-0.18225835360161644 0,-0.18225835360161644 0,-0.364516707203234 C50.08570981814617,25.02971948126839 50.08570981814617,25.02971948126839 50.08570981814617,24.847461127666794 z"/>
	<path id="XMLID_2969_" class="st0" d="M13.039053284966183,22.478102530845767 c0.7124357025611546,-1.0935501216096977 1.4248714051223068,-2.1871002432193953 2.3154160333237486,-3.098392011227476 c0.3562178512805778,-0.364516707203234 0.7124357025611546,-0.7290334144064656 1.0686535538417308,-0.9112917680080816 c-0.3562178512805778,-0.364516707203234 -0.7124357025611546,-0.5467750608048496 -1.2467624794820187,-0.9112917680080816 c-0.1781089256402888,-0.18225835360161644 -0.1781089256402888,0 -0.3562178512805778,0 c-0.5343267769208665,0.5467750608048496 -1.2467624794820187,0.9112917680080816 -1.9591981820431736,1.2758084752113141 c-0.8905446282014426,0.364516707203234 -1.7810892564028848,0.5467750608048496 -2.849742810244613,0.5467750608048496 c-1.0686535538417308,0 -2.13730710768346,-0.364516707203234 -3.20596066152519,-1.0935501216096977 c-0.3562178512805778,-0.18225835360161644 -0.7124357025611546,-0.5467750608048496 -0.8905446282014426,-0.7290334144064656 c-0.1781089256402888,0 -0.1781089256402888,-0.18225835360161644 -0.3562178512805778,0 c-0.8905446282014426,0.5467750608048496 -1.6029803307625952,1.0935501216096977 -2.13730710768346,1.6403251824145468 c-0.7124357025611546,0.7290334144064656 -1.2467624794820187,1.4580668288129293 -1.6029803307625952,2.1871002432193953 c-0.5343267769208665,0.9112917680080816 -0.8905446282014426,1.8225835360161615 -1.0686535538417308,2.733875304024243 c0,0.364516707203234 -0.1781089256402888,0.5467750608048496 -0.1781089256402888,0.9112917680080816 c0,0.18225835360161644 0,0.18225835360161644 0,0.364516707203234 c0.1781089256402888,0.364516707203234 0.5343267769208665,0.5467750608048496 0.8905446282014426,0.5467750608048496 c3.3840695871654782,0 6.768139174330957,0 10.152208761496436,0 C11.970399731124449,24.847461127666794 12.326617582405028,23.571652652455473 13.039053284966183,22.478102530845767 z"/>
	<path id="XMLID_2966_" class="st0" d="M38.50862965152742,27.58133643169103 c-0.3562178512805778,-1.8225835360161615 -0.8905446282014426,-3.462908718430707 -1.7810892564028848,-5.103233900845252 c-0.5343267769208665,-1.0935501216096977 -1.4248714051223068,-2.004841889617778 -2.13730710768346,-2.733875304024243 c-0.8905446282014426,-0.7290334144064656 -1.7810892564028848,-1.4580668288129293 -2.6716338846043257,-2.004841889617778 c-0.1781089256402888,-0.18225835360161644 -0.3562178512805778,-0.18225835360161644 -0.5343267769208665,0 c-0.7124357025611546,0.7290334144064656 -1.6029803307625952,1.2758084752113141 -2.493524958964037,1.6403251824145468 c-1.2467624794820187,0.5467750608048496 -2.493524958964037,0.7290334144064656 -3.7402874384460554,0.7290334144064656 c-1.6029803307625952,0 -3.027851735884903,-0.5467750608048496 -4.27461421536692,-1.4580668288129293 c-0.5343267769208665,-0.364516707203234 -0.8905446282014426,-0.7290334144064656 -1.2467624794820187,-1.0935501216096977 c-0.1781089256402888,-0.18225835360161644 -0.1781089256402888,-0.18225835360161644 -0.3562178512805778,0 c-1.0686535538417308,0.5467750608048496 -2.13730710768346,1.4580668288129293 -3.027851735884903,2.1871002432193953 c-0.8905446282014426,0.9112917680080816 -1.6029803307625952,1.8225835360161615 -2.13730710768346,2.916133657625859 c-0.7124357025611546,1.0935501216096977 -1.0686535538417308,2.3693585968210105 -1.4248714051223068,3.827425425633939 c-0.1781089256402888,0.364516707203234 -0.1781089256402888,0.9112917680080816 -0.1781089256402888,1.2758084752113141 c0,0.18225835360161644 0,0.364516707203234 0,0.364516707203234 c0.1781089256402888,0.5467750608048496 0.7124357025611546,0.7290334144064656 1.2467624794820187,0.7290334144064656 c8.014901653812975,0 16.02980330762595,0 24.044704961438924,0 c0.5343267769208665,0 1.0686535538417308,-0.18225835360161644 1.2467624794820187,-0.7290334144064656 c0,-0.18225835360161644 0,-0.364516707203234 0,-0.364516707203234 C38.50862965152742,27.763594785292636 38.50862965152742,27.58133643169103 38.50862965152742,27.58133643169103 zM28.534529815671252,25.39423618847163 h-2.6716338846043257 v2.733875304024243 h-1.2467624794820187 V25.39423618847163 h-2.6716338846043257 v-1.2758084752113141 h2.6716338846043257 v-2.733875304024243 h1.2467624794820187 v2.733875304024243 h2.6716338846043257 V25.39423618847163 z"/>
</g></g></svg>